<svg xmlns="http://www.w3.org/2000/svg" width="3508" height="2480" viewBox="0 0 3508 2480.4" id="svg2" shape-rendering="geometricPrecision" text-rendering="geometricPrecision" image-rendering="optimizeQuality" fill-rule="evenodd" clip-rule="evenodd"><defs id="defs4"><style id="style6">.fil0{fill:none}.fil2{fill:#00afef}.fil1,.fil3{fill:#4b4b4d}.fil3{fill-rule:nonzero}</style></defs><g id="Camada_x0020_1"><path class="fil0" id="rect10" d="M0 0h3508v2480.4H0z"/><path class="fil0" id="rect12" d="M0 0h3508v2480.4H0z"/><g id="_86155192"><g id="__x0023_4b4b4dff"><path id="_104841056" class="fil1" d="M290.748 603.26c11.27-30.065 42.31-51.297 74.508-50.414 139.054.062 278.137-.121 417.19.093 40.331-.031 76.427 35.76 76.58 76.15.212 155.686.06 311.371.06 467.087-58.24-53.55-115.781-107.922-174.42-161.016v-1.431c-.03-79.594-.09-159.158.031-238.752.062-.914.214-2.802.305-3.747-77.248.122-154.467.062-231.716.03-.396 72.68.061 145.36-.213 218.039 0 6.518.182 13.068.761 19.556 38.564 37.68 78.316 74.14 117.184 111.486-38.808 36.126-77.126 72.802-116.27 108.563-45.539-44.839-91.962-88.794-137.804-133.326-9.108-9.2-19.709-17.181-26.837-28.147-5.757-8.681-4.478-19.555-4.66-29.455.152-101.496.03-202.992.06-304.486.122-16.814-1.4-34.329 5.24-50.23z"/><path id="_104840984" class="fil1" d="M685.003 1148.29c50.534 47.488 100.673 95.373 151.146 142.922 13.16 12.215 22.938 29.272 22.967 47.61 0 115.72.062 231.472-.03 347.194.61 40.817-35.547 77.643-76.396 77.705-140.242.122-280.484.122-420.724 0-40.879-.03-77.036-36.888-76.396-77.737-.122-166.315-.061-332.661-.03-499.008 55.804 56.139 111.82 112.034 167.411 168.417-.67 95.708-1.37 191.415-1.98 287.123 78.315.03 156.6-.03 234.915.03-.123-164.731-.671-329.494-.884-494.256z"/></g><g id="__x0023_00afefff"><path id="_104840840" class="fil2" d="M453.287 691.26c77.25.032 154.468.092 231.716-.03-.09.945-.243 2.833-.305 3.747-76.7 78.224-153.98 155.87-230.863 233.878-.578-6.488-.76-13.037-.76-19.556.274-72.68-.183-145.36.212-218.04z"/><path id="_104840768" class="fil2" d="M571.019 1040.34c37.863-35.578 75.938-70.912 113.649-106.612v1.432c-.152 71.034.214 142.099.335 213.134.213 164.763.761 329.525.884 494.257-78.315-.06-156.6 0-234.914-.031.61-95.708 1.31-191.415 1.98-287.123.701-68.84.427-137.683 1.797-206.494 39.143-35.76 77.462-72.436 116.27-108.563z"/></g><path id="_104840576" class="fil3" d="M1095.77 601.386v21.367c-14.887-7.331-28.588-10.961-41.105-10.961-16.072 0-29.588 5.184-40.587 15.553-10.998 10.37-16.479 23.145-16.479 38.254 0 15.404 5.63 28.254 16.85 38.549 11.258 10.333 25.367 15.48 42.29 15.48 12.295 0 25.292-3.888 39.031-11.628v21.589c-12.517 6.666-26.07 9.998-40.66 9.998-21.442 0-39.736-7.258-54.918-21.737-15.183-14.516-22.775-31.996-22.775-52.473 0-20.11 7.48-37.328 22.404-51.622 14.924-14.332 32.92-21.516 53.955-21.516 13.553 0 27.551 3.037 41.994 9.147zm29.607-4.666h76.58v18.85h-57.917v34.512h57.917v18.665h-57.917v47.511h57.917v18.663h-76.58v-138.2zm106.373-5.554l102.207 105.133V596.72h18.885v144.608l-102.207-104.577v98.17h-18.885V591.168zm149.477 5.554h84.505v18.85h-32.958v119.35h-18.664V615.57h-32.883v-18.85zm117.37 0h29.922c14.923 0 27.032 3.703 36.401 11.11 9.369 7.406 14.072 16.886 14.072 28.477 0 9.257-3.036 17.442-9.11 24.514-6.073 7.074-15.553 12.073-28.44 14.962l40.253 59.139h-21.59l-38.4-56.844h-4.222v56.844h-18.886V596.72zm18.886 16.702V661.6c27.81.555 41.735-7.518 41.735-24.22 0-5.85-1.592-10.628-4.851-14.367-3.259-3.74-7.593-6.26-13.035-7.591-5.408-1.334-13.37-2-23.849-2zm92.152 51.51c0-19.96 7.554-37.068 22.59-51.288 15.034-14.258 33.106-21.405 54.25-21.405 20.59 0 38.365 7.184 53.252 21.552 14.886 14.37 22.367 31.404 22.367 51.14 0 20.923-7.37 38.587-22.108 53.03-14.702 14.406-32.773 21.626-54.177 21.626-21.108 0-39.105-7.258-53.918-21.811-14.813-14.516-22.256-32.144-22.256-52.844zm132.387.889c0-15.257-5.517-28.107-16.516-38.587-10.998-10.442-24.515-15.664-40.549-15.664-15.294 0-28.366 5.295-39.216 15.96-10.888 10.629-16.332 23.367-16.332 38.291 0 15.11 5.555 27.885 16.74 38.327 11.182 10.48 24.884 15.702 41.067 15.702 14.887 0 27.773-5.333 38.586-15.997 10.814-10.666 16.22-23.368 16.22-38.032zm166.142-74.433l65.323 143.534h-19.737l-16.183-35.365h-58.694l-15.74 35.365h-19.626l64.657-143.534zm0 43.29l-22.219 49.14h44.475l-22.256-49.14zm194.174-33.292v21.367c-14.887-7.331-28.589-10.961-41.105-10.961-16.072 0-29.588 5.184-40.587 15.553-10.998 10.37-16.479 23.145-16.479 38.254 0 15.404 5.63 28.254 16.849 38.549 11.259 10.333 25.367 15.48 42.29 15.48 12.295 0 25.293-3.888 39.032-11.628v21.589c-12.517 6.666-26.07 9.998-40.661 9.998-21.441 0-39.735-7.258-54.917-21.737-15.183-14.516-22.775-31.996-22.775-52.473 0-20.11 7.48-37.328 22.404-51.622 14.924-14.332 32.92-21.516 53.955-21.516 13.553 0 27.55 3.037 41.994 9.147zm82.635-9.998l65.323 143.534h-19.737l-16.183-35.365h-58.694l-15.739 35.365h-19.627l64.657-143.534zm0 43.29l-22.218 49.14h44.474l-22.256-49.14zm91.56-37.958h33.514c26.552 0 46.289 6.999 59.213 21.034 12.962 14.035 19.442 30.032 19.442 48.067 0 18.145-6.703 34.216-20.071 48.178-13.405 13.96-32.847 20.922-58.362 20.922h-33.736v-138.2zm18.85 18.442v101.097h1.11c13.998 0 24.59-.63 31.662-1.89 7.074-1.258 13.814-4.036 20.182-8.294 6.37-4.296 11.443-9.925 15.184-16.998 3.777-7.036 5.628-14.813 5.628-23.256 0-10.628-2.999-20.256-8.998-28.885-5.999-8.591-13.184-14.367-21.516-17.33-8.37-2.963-19.589-4.444-33.698-4.444h-9.554zm122.259-18.442h76.58v18.85h-57.917v34.512h57.918v18.665h-57.918v47.511h57.918v18.663h-76.581v-138.2zm36.105-32.218l-12.479 18.443h-22.145l23.552-30.18h20.626l24.404 30.18h-22.144l-11.814-18.443zm185.398 26.441l37.735 143.978h-18.442l-22.885-87.987-39.365 93.32-39.513-93.986-23.106 88.653h-18.443l37.772-143.978 43.29 103.058 42.957-103.058zm65.712 5.777h18.664v138.201h-18.664v-138.2zm169.29 4.666v21.367c-14.887-7.332-28.588-10.961-41.105-10.961-16.072 0-29.588 5.184-40.586 15.553-11 10.37-16.48 23.145-16.48 38.254 0 15.404 5.63 28.254 16.85 38.549 11.258 10.332 25.367 15.48 42.29 15.48 12.295 0 25.292-3.888 39.031-11.629v21.59c-12.517 6.666-26.07 9.998-40.66 9.998-21.442 0-39.736-7.258-54.918-21.737-15.183-14.516-22.775-31.996-22.775-52.473 0-20.11 7.48-37.328 22.404-51.622 14.924-14.332 32.92-21.516 53.955-21.516 13.553 0 27.551 3.037 41.994 9.147zm25.347 63.545c0-19.959 7.555-37.067 22.59-51.287 15.035-14.258 33.106-21.405 54.251-21.405 20.59 0 38.365 7.184 53.252 21.552 14.886 14.369 22.366 31.403 22.366 51.14 0 20.923-7.37 38.587-22.107 53.03-14.702 14.405-32.774 21.626-54.177 21.626-21.108 0-39.105-7.258-53.918-21.811-14.813-14.516-22.256-32.144-22.256-52.845zm132.387.89c0-15.257-5.517-28.107-16.515-38.587-10.998-10.442-24.515-15.664-40.55-15.664-15.294 0-28.366 5.295-39.216 15.96-10.887 10.628-16.331 23.367-16.331 38.291 0 15.11 5.555 27.884 16.739 38.327 11.183 10.48 24.884 15.702 41.067 15.702 14.887 0 27.774-5.333 38.587-15.997 10.813-10.666 16.22-23.368 16.22-38.032zm114.853-69.1h33.514c26.552 0 46.29 6.998 59.213 21.033 12.962 14.035 19.442 30.032 19.442 48.067 0 18.145-6.703 34.216-20.071 48.178-13.405 13.96-32.847 20.922-58.362 20.922h-33.736v-138.2zm18.85 18.44V716.26h1.11c13.998 0 24.59-.63 31.662-1.89 7.074-1.258 13.814-4.036 20.183-8.294 6.37-4.296 11.442-9.925 15.183-16.998 3.777-7.036 5.628-14.813 5.628-23.256 0-10.628-2.999-20.256-8.998-28.885-5.999-8.591-13.184-14.367-21.515-17.33-8.37-2.963-19.59-4.444-33.698-4.444h-9.555zm122.26-18.44h76.58v18.848h-57.917v34.513h57.917v18.665h-57.917v47.511h57.917v18.663h-76.58v-138.2z"/><path id="_104840456" class="fil3" d="M985.586 1200.07l19.257-46.643c20.489 14.41 40.703 21.58 60.577 21.58 30.594 0 45.823-10.654 45.823-31.962 0-10.038-3.619-19.53-10.79-28.614-7.17-9.083-22.059-19.257-44.526-30.527-22.47-11.268-37.63-20.555-45.415-27.794-7.785-7.307-13.795-15.913-18.03-25.951-4.165-9.97-6.282-21.034-6.282-33.19 0-22.674 8.332-41.454 24.927-56.41 16.595-14.955 37.902-22.399 63.921-22.399 33.873 0 58.731 6.351 74.644 18.985l-15.844 44.8c-18.235-13.044-37.56-19.6-57.776-19.6-12.019 0-21.306 3.21-27.931 9.492-6.624 6.351-9.902 14.615-9.902 24.722 0 16.8 18.575 34.282 55.795 52.448 19.6 9.562 33.736 18.44 42.409 26.498 8.673 8.058 15.297 17.482 19.804 28.205 4.576 10.721 6.83 22.74 6.83 35.92 0 23.767-9.356 43.298-28.136 58.596-18.712 15.366-43.844 23.015-75.327 23.015-27.316 0-51.97-7.035-74.028-21.17zm224.477 16.185v-293.11h52.039v293.11h-52.039zm99.024-16.185l19.257-46.643c20.488 14.41 40.702 21.58 60.576 21.58 30.594 0 45.824-10.654 45.824-31.962 0-10.038-3.62-19.53-10.79-28.614-7.17-9.083-22.059-19.257-44.527-30.527-22.469-11.268-37.629-20.555-45.415-27.794-7.785-7.307-13.794-15.913-18.029-25.951-4.166-9.97-6.282-21.034-6.282-33.19 0-22.674 8.332-41.454 24.927-56.41 16.595-14.955 37.901-22.399 63.92-22.399 33.874 0 58.732 6.351 74.644 18.985l-15.843 44.8c-18.235-13.044-37.56-19.6-57.776-19.6-12.02 0-21.307 3.21-27.932 9.492-6.624 6.351-9.901 14.615-9.901 24.722 0 16.8 18.574 34.282 55.795 52.448 19.6 9.562 33.735 18.44 42.409 26.498 8.673 8.058 15.297 17.482 19.804 28.205 4.576 10.721 6.83 22.74 6.83 35.92 0 23.767-9.357 43.298-28.137 58.596-18.711 15.366-43.844 23.015-75.326 23.015-27.316 0-51.97-7.035-74.028-21.17zm342.759-230.691v246.876h-52.04V969.379h-93.219v-46.235h242.643v46.235h-97.384zm183.432 0v68.633h96.838v44.185h-96.838v87.824h132.829v46.234h-184.868V923.144h187.122v46.235h-135.083zm454.349 247.08h-50.4l-30.39-158.096-59.005 161.921h-18.644l-59.004-161.921-31.62 158.096h-50.195l59.006-293.315h27.589l63.444 197.502 62.009-197.502h27.386l59.824 293.315zm203.1-.204l-21.376-59.414h-100.458l-20.42 59.414h-57.775l116.848-297.14h22.81l117.804 297.14h-57.434zm-71.775-207.472l-35.24 108.242h70.41l-35.17-108.242zm146.214 191.286l19.257-46.644c20.488 14.41 40.703 21.581 60.577 21.581 30.594 0 45.823-10.654 45.823-31.962 0-10.038-3.619-19.531-10.79-28.614-7.17-9.083-22.059-19.258-44.526-30.527-22.47-11.268-37.63-20.555-45.415-27.795-7.785-7.306-13.795-15.912-18.03-25.95-4.165-9.97-6.282-21.034-6.282-33.19 0-22.674 8.332-41.454 24.927-56.41 16.595-14.956 37.902-22.399 63.921-22.399 33.873 0 58.731 6.351 74.644 18.984l-15.844 44.8c-18.235-13.043-37.56-19.6-57.776-19.6-12.019 0-21.306 3.21-27.931 9.493-6.624 6.351-9.902 14.614-9.902 24.721 0 16.801 18.575 34.283 55.795 52.45 19.6 9.56 33.736 18.438 42.409 26.497 8.673 8.058 15.297 17.482 19.804 28.205 4.576 10.72 6.83 22.74 6.83 35.92 0 23.766-9.356 43.298-28.136 58.596-18.712 15.365-43.844 23.015-75.327 23.015-27.316 0-51.97-7.035-74.028-21.171zm412.007 16.185h-65.083V923.349c41.522-1.503 67.61-2.185 78.263-2.185 42.682 0 76.555 12.496 101.55 37.492 24.996 24.995 37.492 58.184 37.492 99.57 0 105.375-50.74 158.028-152.222 158.028zm-13.045-247.491v200.097c8.4.751 17.484 1.16 27.25 1.16 26.223 0 46.847-9.492 61.667-28.613 14.888-19.055 22.332-45.757 22.332-80.04 0-62.691-29.161-94.038-87.414-94.038-5.6 0-13.522.479-23.835 1.434zm263.267.615v68.633h96.839v44.185h-96.839v87.824h132.83v46.234h-184.869V923.143h187.122v46.235h-135.083z"/><path id="_104825488" class="fil3" d="M972.081 1611.13v-293.111h52.039v293.111h-52.04zm298.727 4.029l-142.254-185.481v181.657h-50.058V1318.02h25.064l138.428 176.878V1318.02h49.99v297.139h-21.17zm126.631-250.905v68.633h103.054v44.185h-103.054v134.058H1345.4v-293.11h193.131v46.234H1397.44zm166.446 97.794c0-41.726 11.473-77.034 34.35-105.922 22.879-28.887 53.473-43.297 91.717-43.297 42.136 0 74.37 13.043 96.633 39.2 22.264 26.156 33.396 62.828 33.396 110.019 0 47.257-11.61 84.75-34.898 112.477-23.288 27.727-56.34 41.59-99.16 41.59-39.336 0-69.522-13.727-90.487-41.18-21.034-27.522-31.55-65.083-31.55-112.888zm54.019 0c0 34.283 5.805 60.848 17.414 79.628 11.61 18.849 28.478 28.206 50.605 28.206 26.019 0 45.892-9.152 59.55-27.59 13.659-18.37 20.488-45.142 20.488-80.244 0-68.634-25.337-102.985-76.009-102.985-23.22 0-41.043 9.289-53.404 27.863-12.43 18.645-18.644 43.639-18.644 75.122zm406.765 149.082l-78.195-121.014c-7.853-.136-18.849-.614-33.053-1.434v122.448h-54.02v-293.11c2.938 0 14.206-.478 33.873-1.503 19.6-1.024 35.377-1.503 47.396-1.503 74.438 0 111.657 28.82 111.657 86.459 0 17.346-5.19 33.122-15.434 47.394-10.244 14.273-23.219 24.312-38.79 30.186l86.594 132.077h-60.028zm-111.248-247.901v81.404c9.63.82 17.005 1.23 22.058 1.23 21.718 0 37.63-3.073 47.669-9.22 10.107-6.145 15.161-18.029 15.161-35.785 0-14.409-5.395-24.517-16.254-30.185-10.79-5.736-27.794-8.605-51.014-8.605-5.6 0-11.473.341-17.62 1.161zm491.653 244.008h-50.399l-30.39-158.096-59.005 161.921h-18.644l-59.004-161.921-31.62 158.096h-50.195l59.006-293.315h27.589l63.444 197.502 62.009-197.502h27.386l59.823 293.315zm221.078 3.893l-21.375-59.414H2504.32l-20.42 59.414h-57.775l116.848-297.139h22.81l117.804 297.139h-57.434zm-71.774-207.472l-35.24 108.242h70.41l-35.17-108.242zm325.839-65.902l-21.444 42.956c-11.61-11.61-30.254-17.346-56-17.346-24.38 0-44.39 10.175-60.028 30.662-15.571 20.488-23.425 46.37-23.425 77.717s7.24 56.273 21.717 74.644c14.478 18.439 33.805 27.59 57.912 27.59 27.658 0 49.239-9.834 64.877-29.571l24.176 42c-21.171 22.537-52.312 33.805-93.219 33.805-40.975 0-72.8-13.455-95.473-40.43-22.673-26.906-34.008-63.648-34.008-110.223 0-43.365 12.565-79.56 37.764-108.722 25.133-29.16 57.298-43.706 96.497-43.706 33.6 0 60.507 6.829 80.654 20.624zm-127.911 362.495l-8.196-25.404c4.576 1.228 9.22 1.775 14 1.775 17.483 0 26.225-6.01 26.225-18.166 0-4.439-1.367-8.673-4.099-12.839-2.73-4.097-6.145-6.692-10.31-7.785l17.004-17.824c24.039 4.985 35.99 18.78 35.99 41.453 0 12.77-4.712 22.81-14.205 30.117-9.424 7.24-21.718 10.858-36.81 10.858-6.761 0-13.317-.683-19.599-2.185zm342.16-89.12l-21.375-59.415h-100.458l-20.42 59.414h-57.776l116.848-297.139h22.81l117.804 297.14h-57.434zm-71.775-207.473l-35.24 108.242h70.41l-35.17-108.242zm-38.039-103.668h-29.024c2.527-15.161 7.648-27.522 15.297-37.082 7.65-9.561 17.21-14.341 28.546-14.341 10.381 0 20.761 2.595 31.21 7.716 10.38 5.123 17.073 7.718 20.01 7.718 8.127 0 13.93-5.123 17.414-15.434h29.571c-5.054 19.872-11.268 33.463-18.576 40.633-7.375 7.24-16.595 10.79-27.659 10.79-8.263 0-17.687-2.526-28.273-7.649-10.584-5.19-17.55-7.716-20.692-7.716-6.965 0-12.907 5.121-17.824 15.365zm153.06 162.058c0-41.726 11.473-77.034 34.35-105.922 22.88-28.887 53.473-43.297 91.718-43.297 42.136 0 74.37 13.043 96.633 39.2 22.263 26.156 33.395 62.828 33.395 110.019 0 47.257-11.61 84.75-34.898 112.477-23.287 27.727-56.34 41.59-99.16 41.59-39.336 0-69.521-13.727-90.487-41.18-21.034-27.522-31.55-65.083-31.55-112.887zm54.019 0c0 34.283 5.805 60.848 17.415 79.628 11.61 18.849 28.477 28.206 50.605 28.206 26.018 0 45.892-9.152 59.55-27.59 13.658-18.37 20.488-45.141 20.488-80.244 0-68.634-25.337-102.985-76.01-102.985-23.22 0-41.043 9.289-53.404 27.863-12.429 18.645-18.644 43.639-18.644 75.122z"/><path id="_104825416" class="fil2" d="M969.602 810.855H3364.49v30.809H969.602z"/><path id="_104825344" class="fil2" d="M969.602 1731.56H3364.49v30.81H969.602z"/></g></g></svg>