<svg id="Layer_1" xmlns="http://www.w3.org/2000/svg" viewBox="0 0 483.8 146.8"><style>.st0{fill:#1793a6}</style><path class="st0" d="M301.4 52v39.3c0 6.7-2.8 10.3-7.9 10.5l-.7-2.1c2.6-.1 5.7-1.9 5.7-8.2V54.8l-4.8-.1V52h7.7zm8.8-.1v35.2c0 6.7 5.5 9.9 11 9.9 5.6 0 11-3.2 11-9.9V51.9h3v34.8c0 9.9-7.4 13-14 13s-14-3.1-14-13V51.9h3zm13-10.2c.5-1.1 1.5-1.6 2.6-1.2 1.2.4 1.5 1.9.9 2.8l-4.5 6.6h-2.4l3.4-8.2zm21 10.3L371 93.8V52h2.9v47.3H371l-26.8-41.9v41.9h-3V52h3zm40.2 0v47.3h-3V54.8l-4.8-.1V52h7.8zm5.2 13c0-9.5 5.6-14.1 14.1-14.1 8.9 0 13.8 5.5 13.8 14.2v21.7c0 9.9-7.3 13.3-13.9 13.3-6.6 0-14-3.3-14-13.3V65zm3 21.8c0 7.2 5.3 10.3 11 10.3 5.8 0 11-2.8 11-10.4V64.6c0-7-4.3-10.7-11-10.7s-11 3.7-11 10.7v22.2zM438.9 52c8.9 0 12.6 6.1 12.6 14.5 0 4.5-.6 11.7-6.8 14.5l6.8 18.4h-3.1L441.8 82c-.7.1-1.6.1-2.4.1h-13.8v17.3h-3V52h16.3zm-13.2 27h13.6c8.5 0 9.3-7.9 9.3-12.6 0-7.7-3.6-11.6-9.5-11.6h-13.4V79zM146 56.8v6.5c-1.9-1.1-3.8-1.9-5.8-2.4-1.9-.5-3.9-.8-5.9-.8-4.4 0-7.8 1.4-10.3 4.3-2.4 2.8-3.7 6.8-3.7 12 0 5.1 1.2 9.1 3.7 12 2.4 2.8 5.9 4.3 10.3 4.3 2 0 3.9-.3 5.9-.8 1.9-.5 3.9-1.3 5.8-2.4v6.4c-1.9.9-3.9 1.6-5.9 2-2 .5-4.2.7-6.5.7-6.2 0-11.2-2-14.8-6-3.7-4-5.5-9.4-5.5-16.1 0-6.9 1.9-12.3 5.6-16.2 3.7-3.9 8.8-5.9 15.2-5.9 2.1 0 4.1.2 6.1.7 1.9.2 3.9.8 5.8 1.7z"/><path class="st0" d="M164.7 54.2c5.9 0 10.6 2 13.9 5.9 3.4 3.9 5.1 9.3 5.1 16.2 0 6.9-1.7 12.3-5.1 16.2-3.4 3.9-8 5.9-13.9 5.9s-10.6-2-13.9-5.9c-3.4-3.9-5-9.3-5-16.2 0-6.9 1.7-12.3 5-16.2 3.3-3.9 8-5.9 13.9-5.9zm0 5.9c-3.6 0-6.5 1.4-8.6 4.3-2.1 2.9-3.2 6.9-3.2 11.9s1.1 9 3.2 11.9c2.1 2.9 5 4.3 8.7 4.3 3.6 0 6.5-1.5 8.6-4.4 2.1-2.9 3.2-6.9 3.2-11.9s-1.1-8.9-3.2-11.9c-2.2-2.8-5.1-4.2-8.7-4.2zm53.4 3.2c1.7-3.1 3.7-5.4 6.1-6.9 2.4-1.5 5.1-2.2 8.3-2.2 4.3 0 7.6 1.5 10 4.6 2.3 3.1 3.5 7.4 3.5 13.1v25.4h-6.8V72.1c0-4-.7-7-2.1-9-1.4-2-3.5-2.9-6.4-2.9-3.5 0-6.3 1.2-8.3 3.6-2 2.4-3.1 5.6-3.1 9.7v23.8h-6.8V72.1c0-4.1-.7-7.1-2.1-9-1.4-1.9-3.6-2.9-6.5-2.9-3.5 0-6.2 1.2-8.3 3.6-2 2.4-3.1 5.6-3.1 9.7v23.8h-6.8V55.2h6.8v6.5c1.6-2.6 3.4-4.5 5.6-5.7 2.2-1.2 4.7-1.8 7.7-1.8s5.6.8 7.7 2.3c2 1.6 3.6 3.8 4.6 6.8zm39 27.7v22.3h-6.8V55.2h6.8v6.4c1.4-2.5 3.2-4.4 5.4-5.6 2.2-1.2 4.8-1.8 7.8-1.8 5 0 9.1 2 12.2 6.1 3.1 4.1 4.7 9.4 4.7 16s-1.6 12-4.7 16c-3.1 4.1-7.2 6.1-12.2 6.1-3 0-5.6-.6-7.8-1.8-2.2-1.2-4-3.1-5.4-5.6zm23.1-14.7c0-5.1-1-9.1-3.1-12-2.1-2.9-4.9-4.3-8.5-4.3s-6.4 1.4-8.5 4.3c-2.1 2.9-3.1 6.9-3.1 12s1 9.1 3.1 12c2.1 2.9 4.9 4.3 8.5 4.3s6.4-1.4 8.5-4.3c2.1-2.9 3.1-6.9 3.1-12zM56.6 87.8c-2.7 0-6.2-2-6.2-4.7V67.8H31.5c-2.7 0-5.1 1.2-5.1 3.9v36.5c0 2.7 2.4 5.6 5.1 5.6H68c2.7 0 4.4-2.9 4.4-5.6V87.8H56.6zm-8.2-26.6c0 1.4-1 2.6-2.3 2.6H28.7c-1.3 0-2.3-1.1-2.3-2.6V42.4c0-1.4 1-2.6 2.3-2.6h17.4c1.3 0 2.3 1.1 2.3 2.6v18.8zm50 50c0 1.4-1 2.6-2.3 2.6H78.7c-1.3 0-2.3-1.1-2.3-2.6V92.4c0-1.4 1-2.6 2.3-2.6h17.4c1.3 0 2.3 1.1 2.3 2.6v18.8z"/><path class="st0" d="M98.4 80.9c0 2.7-2.2 4.9-4.9 4.9H57.3c-2.7 0-4.9-2.2-4.9-4.9V44.7c0-2.7 2.2-4.9 4.9-4.9h36.2c2.7 0 4.9 2.2 4.9 4.9v36.2z"/></svg>