<?xml version="1.0" encoding="utf-8"?>
<!-- Generator: Adobe Illustrator 21.0.0, SVG Export Plug-In . SVG Version: 6.00 Build 0)  -->
<svg version="1.1" id="Layer_1" xmlns="http://www.w3.org/2000/svg" xmlns:xlink="http://www.w3.org/1999/xlink" x="0px" y="0px"
	 viewBox="0 0 483.8 146.8" style="enable-background:new 0 0 483.8 146.8;" xml:space="preserve">
<style type="text/css">
	.st0{fill:#1793A6;}
</style>
<g>
	<path class="st0" d="M301.4,52v39.3c0,6.7-2.8,10.3-7.9,10.5l-0.7-2.1c2.6-0.1,5.7-1.9,5.7-8.2V54.8l-4.8-0.1V52H301.4z"/>
	<path class="st0" d="M310.2,51.9v35.2c0,6.7,5.5,9.9,11,9.9c5.6,0,11-3.2,11-9.9V51.9h3v34.8c0,9.9-7.4,13-14,13
		c-6.6,0-14-3.1-14-13V51.9H310.2z M323.2,41.7c0.5-1.1,1.5-1.6,2.6-1.2c1.2,0.4,1.5,1.9,0.9,2.8l-4.5,6.6h-2.4L323.2,41.7z"/>
	<path class="st0" d="M344.2,52L371,93.8V52h2.9v47.3H371l-26.8-41.9v41.9h-3V52H344.2z"/>
	<path class="st0" d="M384.4,52v47.3h-3V54.8l-4.8-0.1V52H384.4z"/>
	<path class="st0" d="M389.6,65c0-9.5,5.6-14.1,14.1-14.1c8.9,0,13.8,5.5,13.8,14.2v21.7c0,9.9-7.3,13.3-13.9,13.3
		c-6.6,0-14-3.3-14-13.3V65z M392.6,86.8c0,7.2,5.3,10.3,11,10.3c5.8,0,11-2.8,11-10.4V64.6c0-7-4.3-10.7-11-10.7
		c-6.7,0-11,3.7-11,10.7V86.8z"/>
	<path class="st0" d="M438.9,52c8.9,0,12.6,6.1,12.6,14.5c0,4.5-0.6,11.7-6.8,14.5l6.8,18.4h-3.1l-6.6-17.4
		c-0.7,0.1-1.6,0.1-2.4,0.1h-13.8v17.3h-3V52H438.9z M425.7,79h13.6c8.5,0,9.3-7.9,9.3-12.6c0-7.7-3.6-11.6-9.5-11.6h-13.4V79z"/>
</g>
<g>
	<path class="st0" d="M146,56.8v6.5c-1.9-1.1-3.8-1.9-5.8-2.4c-1.9-0.5-3.9-0.8-5.9-0.8c-4.4,0-7.8,1.4-10.3,4.3
		c-2.4,2.8-3.7,6.8-3.7,12c0,5.1,1.2,9.1,3.7,12c2.4,2.8,5.9,4.3,10.3,4.3c2,0,3.9-0.3,5.9-0.8c1.9-0.5,3.9-1.3,5.8-2.4v6.4
		c-1.9,0.9-3.9,1.6-5.9,2c-2,0.5-4.2,0.7-6.5,0.7c-6.2,0-11.2-2-14.8-6c-3.7-4-5.5-9.4-5.5-16.1c0-6.9,1.9-12.3,5.6-16.2
		c3.7-3.9,8.8-5.9,15.2-5.9c2.1,0,4.1,0.2,6.1,0.7C142.1,55.3,144.1,55.9,146,56.8z"/>
	<path class="st0" d="M164.7,54.2c5.9,0,10.6,2,13.9,5.9c3.4,3.9,5.1,9.3,5.1,16.2c0,6.9-1.7,12.3-5.1,16.2c-3.4,3.9-8,5.9-13.9,5.9
		c-5.9,0-10.6-2-13.9-5.9c-3.4-3.9-5-9.3-5-16.2c0-6.9,1.7-12.3,5-16.2C154.1,56.2,158.8,54.2,164.7,54.2z M164.7,60.1
		c-3.6,0-6.5,1.4-8.6,4.3c-2.1,2.9-3.2,6.9-3.2,11.9s1.1,9,3.2,11.9c2.1,2.9,5,4.3,8.7,4.3c3.6,0,6.5-1.5,8.6-4.4
		c2.1-2.9,3.2-6.9,3.2-11.9c0-5-1.1-8.9-3.2-11.9C171.2,61.5,168.3,60.1,164.7,60.1z"/>
	<path class="st0" d="M218.1,63.3c1.7-3.1,3.7-5.4,6.1-6.9c2.4-1.5,5.1-2.2,8.3-2.2c4.3,0,7.6,1.5,10,4.6c2.3,3.1,3.5,7.4,3.5,13.1
		v25.4h-6.8V72.1c0-4-0.7-7-2.1-9c-1.4-2-3.5-2.9-6.4-2.9c-3.5,0-6.3,1.2-8.3,3.6c-2,2.4-3.1,5.6-3.1,9.7v23.8h-6.8V72.1
		c0-4.1-0.7-7.1-2.1-9c-1.4-1.9-3.6-2.9-6.5-2.9c-3.5,0-6.2,1.2-8.3,3.6c-2,2.4-3.1,5.6-3.1,9.7v23.8h-6.8V55.2h6.8v6.5
		c1.6-2.6,3.4-4.5,5.6-5.7c2.2-1.2,4.7-1.8,7.7-1.8c3,0,5.6,0.8,7.7,2.3C215.5,58.1,217.1,60.3,218.1,63.3z"/>
	<path class="st0" d="M257.1,91v22.3h-6.8V55.2h6.8v6.4c1.4-2.5,3.2-4.4,5.4-5.6c2.2-1.2,4.8-1.8,7.8-1.8c5,0,9.1,2,12.2,6.1
		c3.1,4.1,4.7,9.4,4.7,16s-1.6,12-4.7,16c-3.1,4.1-7.2,6.1-12.2,6.1c-3,0-5.6-0.6-7.8-1.8C260.3,95.4,258.5,93.5,257.1,91z
		 M280.2,76.3c0-5.1-1-9.1-3.1-12c-2.1-2.9-4.9-4.3-8.5-4.3s-6.4,1.4-8.5,4.3c-2.1,2.9-3.1,6.9-3.1,12c0,5.1,1,9.1,3.1,12
		c2.1,2.9,4.9,4.3,8.5,4.3s6.4-1.4,8.5-4.3C279.2,85.4,280.2,81.4,280.2,76.3z"/>
</g>
<path class="st0" d="M56.6,87.8c-2.7,0-6.2-2-6.2-4.7V67.8H31.5c-2.7,0-5.1,1.2-5.1,3.9v36.5c0,2.7,2.4,5.6,5.1,5.6H68
	c2.7,0,4.4-2.9,4.4-5.6V87.8H56.6z"/>
<path class="st0" d="M48.4,61.2c0,1.4-1,2.6-2.3,2.6H28.7c-1.3,0-2.3-1.1-2.3-2.6V42.4c0-1.4,1-2.6,2.3-2.6h17.4
	c1.3,0,2.3,1.1,2.3,2.6V61.2z"/>
<path class="st0" d="M98.4,111.2c0,1.4-1,2.6-2.3,2.6H78.7c-1.3,0-2.3-1.1-2.3-2.6V92.4c0-1.4,1-2.6,2.3-2.6h17.4
	c1.3,0,2.3,1.1,2.3,2.6V111.2z"/>
<path class="st0" d="M98.4,80.9c0,2.7-2.2,4.9-4.9,4.9H57.3c-2.7,0-4.9-2.2-4.9-4.9V44.7c0-2.7,2.2-4.9,4.9-4.9h36.2
	c2.7,0,4.9,2.2,4.9,4.9V80.9z"/>
</svg>
